<svg width="18" height="21" viewBox="0 0 18 21" fill="none" xmlns="http://www.w3.org/2000/svg">
<path d="M9 12.5C12.4706 12.5 14.4641 13.3527 15.5932 14.2164C16.8076 15.1453 17 16.775 17 18.3039C17 19.2406 16.2406 20 15.3039 20H2.69607C1.75936 20 1 19.2406 1 18.3039C1 16.775 1.19243 15.1453 2.40682 14.2164C3.53589 13.3527 5.52943 12.5 9 12.5Z" fill="#5946D7" fill-opacity="0.1"/>
<path d="M9 12.5C12.4706 12.5 14.4641 13.3527 15.5932 14.2164C16.8076 15.1453 17 16.775 17 18.3039C17 19.2406 16.2406 20 15.3039 20H2.69607C1.75936 20 1 19.2406 1 18.3039C1 16.775 1.19243 15.1453 2.40682 14.2164C3.53589 13.3527 5.52943 12.5 9 12.5Z" stroke="#2E1066" stroke-width="1.5" stroke-linecap="round" stroke-linejoin="round"/>
<path d="M9 12.5C12.4706 12.5 14.4641 13.3527 15.5932 14.2164C16.8076 15.1453 17 16.775 17 18.3039C17 19.2406 16.2406 20 15.3039 20H2.69607C1.75936 20 1 19.2406 1 18.3039C1 16.775 1.19243 15.1453 2.40682 14.2164C3.53589 13.3527 5.52943 12.5 9 12.5Z" stroke="#410F9E" stroke-width="1.5" stroke-linecap="round" stroke-linejoin="round"/>
<path d="M9 12.5C12.4706 12.5 14.4641 13.3527 15.5932 14.2164C16.8076 15.1453 17 16.775 17 18.3039C17 19.2406 16.2406 20 15.3039 20H2.69607C1.75936 20 1 19.2406 1 18.3039C1 16.775 1.19243 15.1453 2.40682 14.2164C3.53589 13.3527 5.52943 12.5 9 12.5Z" stroke="#453888" stroke-width="1.5" stroke-linecap="round" stroke-linejoin="round"/>
<path d="M9 12.5C12.4706 12.5 14.4641 13.3527 15.5932 14.2164C16.8076 15.1453 17 16.775 17 18.3039C17 19.2406 16.2406 20 15.3039 20H2.69607C1.75936 20 1 19.2406 1 18.3039C1 16.775 1.19243 15.1453 2.40682 14.2164C3.53589 13.3527 5.52943 12.5 9 12.5Z" stroke="#5946D7" stroke-width="1.5" stroke-linecap="round" stroke-linejoin="round"/>
<path d="M9 12.5C12.4706 12.5 14.4641 13.3527 15.5932 14.2164C16.8076 15.1453 17 16.775 17 18.3039C17 19.2406 16.2406 20 15.3039 20H2.69607C1.75936 20 1 19.2406 1 18.3039C1 16.775 1.19243 15.1453 2.40682 14.2164C3.53589 13.3527 5.52943 12.5 9 12.5Z" stroke="#6B59CC" stroke-width="1.5" stroke-linecap="round" stroke-linejoin="round"/>
<circle cx="9" cy="5" r="4" stroke="#2E1066" stroke-width="1.5"/>
<circle cx="9" cy="5" r="4" stroke="#410F9E" stroke-width="1.5"/>
<circle cx="9" cy="5" r="4" stroke="#453888" stroke-width="1.5"/>
<circle cx="9" cy="5" r="4" stroke="#5946D7" stroke-width="1.5"/>
<circle cx="9" cy="5" r="4" stroke="#6B59CC" stroke-width="1.5"/>
</svg>
