<svg width="20" height="20" viewBox="0 0 20 20" fill="none" xmlns="http://www.w3.org/2000/svg">
<path fill-rule="evenodd" clip-rule="evenodd" d="M16.9645 14.61L15.7915 13.437C15.2055 12.851 14.2555 12.851 13.6705 13.437L12.7485 14.359C12.5425 14.565 12.2305 14.634 11.9645 14.517C10.6285 13.932 9.30854 13.045 8.13154 11.868C6.95954 10.696 6.07554 9.38197 5.48954 8.05097C5.36754 7.77597 5.43854 7.45297 5.65154 7.23997L6.47754 6.41397C7.14854 5.74297 7.14854 4.79397 6.56254 4.20797L5.38954 3.03497C4.60854 2.25397 3.34254 2.25397 2.56154 3.03497L1.90954 3.68597C1.16854 4.42697 0.859536 5.49597 1.05954 6.55597C1.55354 9.16897 3.07154 12.03 5.52054 14.479C7.96954 16.928 10.8305 18.446 13.4435 18.94C14.5035 19.14 15.5725 18.831 16.3135 18.09L16.9645 17.439C17.7455 16.658 17.7455 15.392 16.9645 14.61V14.61Z" stroke="#2E1066" stroke-width="1.5" stroke-linecap="round" stroke-linejoin="round"/>
<path fill-rule="evenodd" clip-rule="evenodd" d="M16.9645 14.61L15.7915 13.437C15.2055 12.851 14.2555 12.851 13.6705 13.437L12.7485 14.359C12.5425 14.565 12.2305 14.634 11.9645 14.517C10.6285 13.932 9.30854 13.045 8.13154 11.868C6.95954 10.696 6.07554 9.38197 5.48954 8.05097C5.36754 7.77597 5.43854 7.45297 5.65154 7.23997L6.47754 6.41397C7.14854 5.74297 7.14854 4.79397 6.56254 4.20797L5.38954 3.03497C4.60854 2.25397 3.34254 2.25397 2.56154 3.03497L1.90954 3.68597C1.16854 4.42697 0.859536 5.49597 1.05954 6.55597C1.55354 9.16897 3.07154 12.03 5.52054 14.479C7.96954 16.928 10.8305 18.446 13.4435 18.94C14.5035 19.14 15.5725 18.831 16.3135 18.09L16.9645 17.439C17.7455 16.658 17.7455 15.392 16.9645 14.61V14.61Z" stroke="#410F9E" stroke-width="1.5" stroke-linecap="round" stroke-linejoin="round"/>
<path fill-rule="evenodd" clip-rule="evenodd" d="M16.9645 14.61L15.7915 13.437C15.2055 12.851 14.2555 12.851 13.6705 13.437L12.7485 14.359C12.5425 14.565 12.2305 14.634 11.9645 14.517C10.6285 13.932 9.30854 13.045 8.13154 11.868C6.95954 10.696 6.07554 9.38197 5.48954 8.05097C5.36754 7.77597 5.43854 7.45297 5.65154 7.23997L6.47754 6.41397C7.14854 5.74297 7.14854 4.79397 6.56254 4.20797L5.38954 3.03497C4.60854 2.25397 3.34254 2.25397 2.56154 3.03497L1.90954 3.68597C1.16854 4.42697 0.859536 5.49597 1.05954 6.55597C1.55354 9.16897 3.07154 12.03 5.52054 14.479C7.96954 16.928 10.8305 18.446 13.4435 18.94C14.5035 19.14 15.5725 18.831 16.3135 18.09L16.9645 17.439C17.7455 16.658 17.7455 15.392 16.9645 14.61V14.61Z" stroke="#453888" stroke-width="1.5" stroke-linecap="round" stroke-linejoin="round"/>
<path fill-rule="evenodd" clip-rule="evenodd" d="M16.9645 14.61L15.7915 13.437C15.2055 12.851 14.2555 12.851 13.6705 13.437L12.7485 14.359C12.5425 14.565 12.2305 14.634 11.9645 14.517C10.6285 13.932 9.30854 13.045 8.13154 11.868C6.95954 10.696 6.07554 9.38197 5.48954 8.05097C5.36754 7.77597 5.43854 7.45297 5.65154 7.23997L6.47754 6.41397C7.14854 5.74297 7.14854 4.79397 6.56254 4.20797L5.38954 3.03497C4.60854 2.25397 3.34254 2.25397 2.56154 3.03497L1.90954 3.68597C1.16854 4.42697 0.859536 5.49597 1.05954 6.55597C1.55354 9.16897 3.07154 12.03 5.52054 14.479C7.96954 16.928 10.8305 18.446 13.4435 18.94C14.5035 19.14 15.5725 18.831 16.3135 18.09L16.9645 17.439C17.7455 16.658 17.7455 15.392 16.9645 14.61V14.61Z" stroke="#5946D7" stroke-width="1.5" stroke-linecap="round" stroke-linejoin="round"/>
<path fill-rule="evenodd" clip-rule="evenodd" d="M16.9645 14.61L15.7915 13.437C15.2055 12.851 14.2555 12.851 13.6705 13.437L12.7485 14.359C12.5425 14.565 12.2305 14.634 11.9645 14.517C10.6285 13.932 9.30854 13.045 8.13154 11.868C6.95954 10.696 6.07554 9.38197 5.48954 8.05097C5.36754 7.77597 5.43854 7.45297 5.65154 7.23997L6.47754 6.41397C7.14854 5.74297 7.14854 4.79397 6.56254 4.20797L5.38954 3.03497C4.60854 2.25397 3.34254 2.25397 2.56154 3.03497L1.90954 3.68597C1.16854 4.42697 0.859536 5.49597 1.05954 6.55597C1.55354 9.16897 3.07154 12.03 5.52054 14.479C7.96954 16.928 10.8305 18.446 13.4435 18.94C14.5035 19.14 15.5725 18.831 16.3135 18.09L16.9645 17.439C17.7455 16.658 17.7455 15.392 16.9645 14.61V14.61Z" stroke="#6B59CC" stroke-width="1.5" stroke-linecap="round" stroke-linejoin="round"/>
<g opacity="0.5">
<path d="M11 4.99184C12.031 4.97784 13.067 5.35984 13.854 6.14684C14.641 6.93384 15.023 7.96985 15.009 9.00085M11 0.964844C13.056 0.964844 15.113 1.74984 16.682 3.31884C18.251 4.88784 19.036 6.94485 19.036 9.00085" stroke="#2E1066" stroke-width="1.5" stroke-linecap="round" stroke-linejoin="round"/>
<path d="M11 4.99184C12.031 4.97784 13.067 5.35984 13.854 6.14684C14.641 6.93384 15.023 7.96985 15.009 9.00085M11 0.964844C13.056 0.964844 15.113 1.74984 16.682 3.31884C18.251 4.88784 19.036 6.94485 19.036 9.00085" stroke="#410F9E" stroke-width="1.5" stroke-linecap="round" stroke-linejoin="round"/>
<path d="M11 4.99184C12.031 4.97784 13.067 5.35984 13.854 6.14684C14.641 6.93384 15.023 7.96985 15.009 9.00085M11 0.964844C13.056 0.964844 15.113 1.74984 16.682 3.31884C18.251 4.88784 19.036 6.94485 19.036 9.00085" stroke="#453888" stroke-width="1.5" stroke-linecap="round" stroke-linejoin="round"/>
<path d="M11 4.99184C12.031 4.97784 13.067 5.35984 13.854 6.14684C14.641 6.93384 15.023 7.96985 15.009 9.00085M11 0.964844C13.056 0.964844 15.113 1.74984 16.682 3.31884C18.251 4.88784 19.036 6.94485 19.036 9.00085" stroke="#5946D7" stroke-width="1.5" stroke-linecap="round" stroke-linejoin="round"/>
<path d="M11 4.99184C12.031 4.97784 13.067 5.35984 13.854 6.14684C14.641 6.93384 15.023 7.96985 15.009 9.00085M11 0.964844C13.056 0.964844 15.113 1.74984 16.682 3.31884C18.251 4.88784 19.036 6.94485 19.036 9.00085" stroke="#6B59CC" stroke-width="1.5" stroke-linecap="round" stroke-linejoin="round"/>
</g>
</svg>
