<svg width="48" height="48" viewBox="0 0 48 48" fill="none" xmlns="http://www.w3.org/2000/svg">
<g clip-path="url(#clip0_1_11121)">
<path d="M14.6396 20.72C14.2396 20.24 13.5997 20 12.9596 20H7.99961C6.63958 20 5.59961 21.04 5.59961 22.4V39.2C5.59961 40.56 6.63958 41.6 7.99961 41.6H15.9996C17.3596 41.6 18.3996 40.56 18.3996 39.2V25.44C18.3996 24.8 18.1596 24.24 17.6796 23.76L14.6396 20.72ZM16.7996 39.2C16.7996 39.68 16.4797 40 15.9997 40H7.99961C7.51961 40 7.19964 39.68 7.19964 39.2V22.4C7.19964 21.92 7.51961 21.6 7.99961 21.6H12.9596C13.1996 21.6 13.3597 21.68 13.5196 21.84L16.5596 24.8801C16.7197 25.0401 16.7996 25.2 16.7996 25.44V39.2Z" fill="#2E1066"/>
<path d="M14.6396 20.72C14.2396 20.24 13.5997 20 12.9596 20H7.99961C6.63958 20 5.59961 21.04 5.59961 22.4V39.2C5.59961 40.56 6.63958 41.6 7.99961 41.6H15.9996C17.3596 41.6 18.3996 40.56 18.3996 39.2V25.44C18.3996 24.8 18.1596 24.24 17.6796 23.76L14.6396 20.72ZM16.7996 39.2C16.7996 39.68 16.4797 40 15.9997 40H7.99961C7.51961 40 7.19964 39.68 7.19964 39.2V22.4C7.19964 21.92 7.51961 21.6 7.99961 21.6H12.9596C13.1996 21.6 13.3597 21.68 13.5196 21.84L16.5596 24.8801C16.7197 25.0401 16.7996 25.2 16.7996 25.44V39.2Z" fill="#410F9E"/>
<path d="M14.6396 20.72C14.2396 20.24 13.5997 20 12.9596 20H7.99961C6.63958 20 5.59961 21.04 5.59961 22.4V39.2C5.59961 40.56 6.63958 41.6 7.99961 41.6H15.9996C17.3596 41.6 18.3996 40.56 18.3996 39.2V25.44C18.3996 24.8 18.1596 24.24 17.6796 23.76L14.6396 20.72ZM16.7996 39.2C16.7996 39.68 16.4797 40 15.9997 40H7.99961C7.51961 40 7.19964 39.68 7.19964 39.2V22.4C7.19964 21.92 7.51961 21.6 7.99961 21.6H12.9596C13.1996 21.6 13.3597 21.68 13.5196 21.84L16.5596 24.8801C16.7197 25.0401 16.7996 25.2 16.7996 25.44V39.2Z" fill="#453888"/>
<path d="M14.6396 20.72C14.2396 20.24 13.5997 20 12.9596 20H7.99961C6.63958 20 5.59961 21.04 5.59961 22.4V39.2C5.59961 40.56 6.63958 41.6 7.99961 41.6H15.9996C17.3596 41.6 18.3996 40.56 18.3996 39.2V25.44C18.3996 24.8 18.1596 24.24 17.6796 23.76L14.6396 20.72ZM16.7996 39.2C16.7996 39.68 16.4797 40 15.9997 40H7.99961C7.51961 40 7.19964 39.68 7.19964 39.2V22.4C7.19964 21.92 7.51961 21.6 7.99961 21.6H12.9596C13.1996 21.6 13.3597 21.68 13.5196 21.84L16.5596 24.8801C16.7197 25.0401 16.7996 25.2 16.7996 25.44V39.2Z" fill="#5946D7"/>
<path d="M30.9607 27.1197C31.3607 27.1996 31.6807 27.1996 32.0006 27.1996C33.1207 27.1996 34.1606 26.7996 34.9606 26.0796C36.0806 25.1196 36.7206 23.7596 36.7206 22.3196C36.7206 21.5996 36.4806 20.8796 36.0805 20.2395L35.6805 19.5995C35.1205 18.7195 34.5605 17.8395 34.0805 16.8795L32.6405 13.9995C32.4804 13.6796 32.2404 13.5195 31.9205 13.5195C31.6005 13.5195 31.3605 13.7595 31.2005 13.9995L30.0804 16.3196C29.5205 17.5196 28.8804 18.7995 28.0004 19.9196C27.5204 20.5596 27.2804 21.2796 27.2004 22.0796C27.0407 24.4797 28.6406 26.6397 30.9607 27.1197ZM28.8806 22.2397C28.8806 21.7597 29.0406 21.3597 29.3606 20.9597C30.2407 19.6797 30.9607 18.3197 31.6006 17.0397L32.0006 16.1597L32.7206 17.5997C33.2006 18.6397 33.8407 19.5197 34.4006 20.4797L34.8806 21.1997C35.2006 21.5997 35.2807 21.9997 35.2807 22.4797C35.2807 23.4397 34.8007 24.3197 34.0807 24.9597C33.2807 25.5997 32.3207 25.8397 31.3607 25.5997C29.8406 25.2796 28.8007 23.8396 28.8806 22.2397Z" fill="#2E1066"/>
<path d="M30.9607 27.1197C31.3607 27.1996 31.6807 27.1996 32.0006 27.1996C33.1207 27.1996 34.1606 26.7996 34.9606 26.0796C36.0806 25.1196 36.7206 23.7596 36.7206 22.3196C36.7206 21.5996 36.4806 20.8796 36.0805 20.2395L35.6805 19.5995C35.1205 18.7195 34.5605 17.8395 34.0805 16.8795L32.6405 13.9995C32.4804 13.6796 32.2404 13.5195 31.9205 13.5195C31.6005 13.5195 31.3605 13.7595 31.2005 13.9995L30.0804 16.3196C29.5205 17.5196 28.8804 18.7995 28.0004 19.9196C27.5204 20.5596 27.2804 21.2796 27.2004 22.0796C27.0407 24.4797 28.6406 26.6397 30.9607 27.1197ZM28.8806 22.2397C28.8806 21.7597 29.0406 21.3597 29.3606 20.9597C30.2407 19.6797 30.9607 18.3197 31.6006 17.0397L32.0006 16.1597L32.7206 17.5997C33.2006 18.6397 33.8407 19.5197 34.4006 20.4797L34.8806 21.1997C35.2006 21.5997 35.2807 21.9997 35.2807 22.4797C35.2807 23.4397 34.8007 24.3197 34.0807 24.9597C33.2807 25.5997 32.3207 25.8397 31.3607 25.5997C29.8406 25.2796 28.8007 23.8396 28.8806 22.2397Z" fill="#410F9E"/>
<path d="M30.9607 27.1197C31.3607 27.1996 31.6807 27.1996 32.0006 27.1996C33.1207 27.1996 34.1606 26.7996 34.9606 26.0796C36.0806 25.1196 36.7206 23.7596 36.7206 22.3196C36.7206 21.5996 36.4806 20.8796 36.0805 20.2395L35.6805 19.5995C35.1205 18.7195 34.5605 17.8395 34.0805 16.8795L32.6405 13.9995C32.4804 13.6796 32.2404 13.5195 31.9205 13.5195C31.6005 13.5195 31.3605 13.7595 31.2005 13.9995L30.0804 16.3196C29.5205 17.5196 28.8804 18.7995 28.0004 19.9196C27.5204 20.5596 27.2804 21.2796 27.2004 22.0796C27.0407 24.4797 28.6406 26.6397 30.9607 27.1197ZM28.8806 22.2397C28.8806 21.7597 29.0406 21.3597 29.3606 20.9597C30.2407 19.6797 30.9607 18.3197 31.6006 17.0397L32.0006 16.1597L32.7206 17.5997C33.2006 18.6397 33.8407 19.5197 34.4006 20.4797L34.8806 21.1997C35.2006 21.5997 35.2807 21.9997 35.2807 22.4797C35.2807 23.4397 34.8007 24.3197 34.0807 24.9597C33.2807 25.5997 32.3207 25.8397 31.3607 25.5997C29.8406 25.2796 28.8007 23.8396 28.8806 22.2397Z" fill="#453888"/>
<path d="M30.9607 27.1197C31.3607 27.1996 31.6807 27.1996 32.0006 27.1996C33.1207 27.1996 34.1606 26.7996 34.9606 26.0796C36.0806 25.1196 36.7206 23.7596 36.7206 22.3196C36.7206 21.5996 36.4806 20.8796 36.0805 20.2395L35.6805 19.5995C35.1205 18.7195 34.5605 17.8395 34.0805 16.8795L32.6405 13.9995C32.4804 13.6796 32.2404 13.5195 31.9205 13.5195C31.6005 13.5195 31.3605 13.7595 31.2005 13.9995L30.0804 16.3196C29.5205 17.5196 28.8804 18.7995 28.0004 19.9196C27.5204 20.5596 27.2804 21.2796 27.2004 22.0796C27.0407 24.4797 28.6406 26.6397 30.9607 27.1197ZM28.8806 22.2397C28.8806 21.7597 29.0406 21.3597 29.3606 20.9597C30.2407 19.6797 30.9607 18.3197 31.6006 17.0397L32.0006 16.1597L32.7206 17.5997C33.2006 18.6397 33.8407 19.5197 34.4006 20.4797L34.8806 21.1997C35.2006 21.5997 35.2807 21.9997 35.2807 22.4797C35.2807 23.4397 34.8007 24.3197 34.0807 24.9597C33.2807 25.5997 32.3207 25.8397 31.3607 25.5997C29.8406 25.2796 28.8007 23.8396 28.8806 22.2397Z" fill="#5946D7"/>
<path d="M12.7996 26.4004H10.3996C9.91958 26.4004 9.59961 26.7204 9.59961 27.2004C9.59961 27.6804 9.91958 28.0003 10.3996 28.0003H12.7996C13.2796 28.0003 13.5996 27.6804 13.5996 27.2004C13.5996 26.7204 13.2796 26.4004 12.7996 26.4004Z" fill="#2E1066"/>
<path d="M12.7996 26.4004H10.3996C9.91958 26.4004 9.59961 26.7204 9.59961 27.2004C9.59961 27.6804 9.91958 28.0003 10.3996 28.0003H12.7996C13.2796 28.0003 13.5996 27.6804 13.5996 27.2004C13.5996 26.7204 13.2796 26.4004 12.7996 26.4004Z" fill="#410F9E"/>
<path d="M12.7996 26.4004H10.3996C9.91958 26.4004 9.59961 26.7204 9.59961 27.2004C9.59961 27.6804 9.91958 28.0003 10.3996 28.0003H12.7996C13.2796 28.0003 13.5996 27.6804 13.5996 27.2004C13.5996 26.7204 13.2796 26.4004 12.7996 26.4004Z" fill="#453888"/>
<path d="M12.7996 26.4004H10.3996C9.91958 26.4004 9.59961 26.7204 9.59961 27.2004C9.59961 27.6804 9.91958 28.0003 10.3996 28.0003H12.7996C13.2796 28.0003 13.5996 27.6804 13.5996 27.2004C13.5996 26.7204 13.2796 26.4004 12.7996 26.4004Z" fill="#5946D7"/>
<path d="M12.7996 30.4004H10.3996C9.91958 30.4004 9.59961 30.7204 9.59961 31.2004C9.59961 31.6804 9.91958 32.0003 10.3996 32.0003H12.7996C13.2796 32.0003 13.5996 31.6804 13.5996 31.2004C13.5996 30.7204 13.2796 30.4004 12.7996 30.4004Z" fill="#2E1066"/>
<path d="M12.7996 30.4004H10.3996C9.91958 30.4004 9.59961 30.7204 9.59961 31.2004C9.59961 31.6804 9.91958 32.0003 10.3996 32.0003H12.7996C13.2796 32.0003 13.5996 31.6804 13.5996 31.2004C13.5996 30.7204 13.2796 30.4004 12.7996 30.4004Z" fill="#410F9E"/>
<path d="M12.7996 30.4004H10.3996C9.91958 30.4004 9.59961 30.7204 9.59961 31.2004C9.59961 31.6804 9.91958 32.0003 10.3996 32.0003H12.7996C13.2796 32.0003 13.5996 31.6804 13.5996 31.2004C13.5996 30.7204 13.2796 30.4004 12.7996 30.4004Z" fill="#453888"/>
<path d="M12.7996 30.4004H10.3996C9.91958 30.4004 9.59961 30.7204 9.59961 31.2004C9.59961 31.6804 9.91958 32.0003 10.3996 32.0003H12.7996C13.2796 32.0003 13.5996 31.6804 13.5996 31.2004C13.5996 30.7204 13.2796 30.4004 12.7996 30.4004Z" fill="#5946D7"/>
<path d="M12.7996 34.4004H10.3996C9.91958 34.4004 9.59961 34.7204 9.59961 35.2004C9.59961 35.6804 9.91958 36.0003 10.3996 36.0003H12.7996C13.2796 36.0003 13.5996 35.6804 13.5996 35.2004C13.5996 34.7204 13.2796 34.4004 12.7996 34.4004Z" fill="#2E1066"/>
<path d="M12.7996 34.4004H10.3996C9.91958 34.4004 9.59961 34.7204 9.59961 35.2004C9.59961 35.6804 9.91958 36.0003 10.3996 36.0003H12.7996C13.2796 36.0003 13.5996 35.6804 13.5996 35.2004C13.5996 34.7204 13.2796 34.4004 12.7996 34.4004Z" fill="#410F9E"/>
<path d="M12.7996 34.4004H10.3996C9.91958 34.4004 9.59961 34.7204 9.59961 35.2004C9.59961 35.6804 9.91958 36.0003 10.3996 36.0003H12.7996C13.2796 36.0003 13.5996 35.6804 13.5996 35.2004C13.5996 34.7204 13.2796 34.4004 12.7996 34.4004Z" fill="#453888"/>
<path d="M12.7996 34.4004H10.3996C9.91958 34.4004 9.59961 34.7204 9.59961 35.2004C9.59961 35.6804 9.91958 36.0003 10.3996 36.0003H12.7996C13.2796 36.0003 13.5996 35.6804 13.5996 35.2004C13.5996 34.7204 13.2796 34.4004 12.7996 34.4004Z" fill="#5946D7"/>
<path d="M46.8 12.16L40.64 6C39.92 5.20003 38.88 4.8 37.8399 4.8H27.9999V2.4C27.9999 1.03997 26.96 0 25.5999 0H22.4C21.0399 0 20 1.03997 20 2.4V4.8C17.76 4.8 15.9999 6.55997 15.9999 8.80003V13.8382C15.5653 13.6797 15.1027 13.6 14.6399 13.6H7.99997V11.2C7.99997 9.84 6.96 8.80003 5.59997 8.80003H4.00003C2.64 8.80003 1.60003 9.84 1.60003 11.2V13.7601C0.640031 14.08 0 14.96 0 16V45.6C0 46.96 1.03997 48 2.4 48H21.6H44C46.24 48 48 46.24 48 44V14.96C48 13.92 47.52 12.88 46.8 12.16ZM22.4 19.36V12C22.4 11.52 22.7199 11.2 23.1999 11.2H35.9199C36.56 11.2 37.1199 11.44 37.5999 11.92L40.88 15.2001C41.36 15.6001 41.6 16.24 41.6 16.8801V40.8C41.6 41.28 41.28 41.6 40.8 41.6H24.8C24.32 41.6 24 41.28 24 40.8V22.96V22.8801V22.24C24 21.6 23.76 21.04 23.28 20.56L22.8 20.08L22.64 19.92C22.48 19.76 22.4 19.6 22.4 19.36ZM1.60003 45.6V16C1.60003 15.52 1.92 15.2001 2.4 15.2001C2.88 15.2001 3.19997 14.8801 3.19997 14.4001V11.2001C3.19997 10.7201 3.51994 10.4002 3.99994 10.4002H5.59997C6.07997 10.4002 6.39994 10.7201 6.39994 11.2001V14.4C6.39994 14.88 6.71991 15.2 7.19991 15.2H14.6399C15.2799 15.2 15.8399 15.44 16.3199 15.92L21.6799 21.2799C22.1599 21.68 22.3999 22.3199 22.3999 22.9599V40.8V45.6C22.3999 46.08 22.0799 46.4 21.5999 46.4H2.4C1.92 46.4 1.60003 46.08 1.60003 45.6ZM46.4 44C46.4 45.36 45.36 46.4 44 46.4H23.871C23.9544 46.1513 24 45.8827 24 45.6V43.071C24.2486 43.1544 24.5172 43.2 24.8 43.2H40.8C42.16 43.2 43.2 42.16 43.2 40.8V16.88C43.2 15.84 42.72 14.7999 42 14.0799L38.72 10.8C38 10 36.96 9.6 35.9199 9.6H23.1999C21.8399 9.6 20.7999 10.64 20.7999 12V18.08L17.6 14.88V8.80003C17.6 7.44 18.6399 6.40003 20 6.40003H20.7999C21.2799 6.40003 21.5999 6.08006 21.5999 5.60006V2.4C21.5999 1.92 21.9199 1.60003 22.3999 1.60003H25.5998C26.0798 1.60003 26.3998 1.92 26.3998 2.4V5.59997C26.3998 6.07997 26.7198 6.39994 27.1998 6.39994H37.8397C38.4798 6.39994 39.1197 6.63994 39.5198 7.11994L45.6798 13.28C46.1598 13.68 46.3998 14.3199 46.3998 14.96V44H46.4Z" fill="#2E1066"/>
<path d="M46.8 12.16L40.64 6C39.92 5.20003 38.88 4.8 37.8399 4.8H27.9999V2.4C27.9999 1.03997 26.96 0 25.5999 0H22.4C21.0399 0 20 1.03997 20 2.4V4.8C17.76 4.8 15.9999 6.55997 15.9999 8.80003V13.8382C15.5653 13.6797 15.1027 13.6 14.6399 13.6H7.99997V11.2C7.99997 9.84 6.96 8.80003 5.59997 8.80003H4.00003C2.64 8.80003 1.60003 9.84 1.60003 11.2V13.7601C0.640031 14.08 0 14.96 0 16V45.6C0 46.96 1.03997 48 2.4 48H21.6H44C46.24 48 48 46.24 48 44V14.96C48 13.92 47.52 12.88 46.8 12.16ZM22.4 19.36V12C22.4 11.52 22.7199 11.2 23.1999 11.2H35.9199C36.56 11.2 37.1199 11.44 37.5999 11.92L40.88 15.2001C41.36 15.6001 41.6 16.24 41.6 16.8801V40.8C41.6 41.28 41.28 41.6 40.8 41.6H24.8C24.32 41.6 24 41.28 24 40.8V22.96V22.8801V22.24C24 21.6 23.76 21.04 23.28 20.56L22.8 20.08L22.64 19.92C22.48 19.76 22.4 19.6 22.4 19.36ZM1.60003 45.6V16C1.60003 15.52 1.92 15.2001 2.4 15.2001C2.88 15.2001 3.19997 14.8801 3.19997 14.4001V11.2001C3.19997 10.7201 3.51994 10.4002 3.99994 10.4002H5.59997C6.07997 10.4002 6.39994 10.7201 6.39994 11.2001V14.4C6.39994 14.88 6.71991 15.2 7.19991 15.2H14.6399C15.2799 15.2 15.8399 15.44 16.3199 15.92L21.6799 21.2799C22.1599 21.68 22.3999 22.3199 22.3999 22.9599V40.8V45.6C22.3999 46.08 22.0799 46.4 21.5999 46.4H2.4C1.92 46.4 1.60003 46.08 1.60003 45.6ZM46.4 44C46.4 45.36 45.36 46.4 44 46.4H23.871C23.9544 46.1513 24 45.8827 24 45.6V43.071C24.2486 43.1544 24.5172 43.2 24.8 43.2H40.8C42.16 43.2 43.2 42.16 43.2 40.8V16.88C43.2 15.84 42.72 14.7999 42 14.0799L38.72 10.8C38 10 36.96 9.6 35.9199 9.6H23.1999C21.8399 9.6 20.7999 10.64 20.7999 12V18.08L17.6 14.88V8.80003C17.6 7.44 18.6399 6.40003 20 6.40003H20.7999C21.2799 6.40003 21.5999 6.08006 21.5999 5.60006V2.4C21.5999 1.92 21.9199 1.60003 22.3999 1.60003H25.5998C26.0798 1.60003 26.3998 1.92 26.3998 2.4V5.59997C26.3998 6.07997 26.7198 6.39994 27.1998 6.39994H37.8397C38.4798 6.39994 39.1197 6.63994 39.5198 7.11994L45.6798 13.28C46.1598 13.68 46.3998 14.3199 46.3998 14.96V44H46.4Z" fill="#410F9E"/>
<path d="M46.8 12.16L40.64 6C39.92 5.20003 38.88 4.8 37.8399 4.8H27.9999V2.4C27.9999 1.03997 26.96 0 25.5999 0H22.4C21.0399 0 20 1.03997 20 2.4V4.8C17.76 4.8 15.9999 6.55997 15.9999 8.80003V13.8382C15.5653 13.6797 15.1027 13.6 14.6399 13.6H7.99997V11.2C7.99997 9.84 6.96 8.80003 5.59997 8.80003H4.00003C2.64 8.80003 1.60003 9.84 1.60003 11.2V13.7601C0.640031 14.08 0 14.96 0 16V45.6C0 46.96 1.03997 48 2.4 48H21.6H44C46.24 48 48 46.24 48 44V14.96C48 13.92 47.52 12.88 46.8 12.16ZM22.4 19.36V12C22.4 11.52 22.7199 11.2 23.1999 11.2H35.9199C36.56 11.2 37.1199 11.44 37.5999 11.92L40.88 15.2001C41.36 15.6001 41.6 16.24 41.6 16.8801V40.8C41.6 41.28 41.28 41.6 40.8 41.6H24.8C24.32 41.6 24 41.28 24 40.8V22.96V22.8801V22.24C24 21.6 23.76 21.04 23.28 20.56L22.8 20.08L22.64 19.92C22.48 19.76 22.4 19.6 22.4 19.36ZM1.60003 45.6V16C1.60003 15.52 1.92 15.2001 2.4 15.2001C2.88 15.2001 3.19997 14.8801 3.19997 14.4001V11.2001C3.19997 10.7201 3.51994 10.4002 3.99994 10.4002H5.59997C6.07997 10.4002 6.39994 10.7201 6.39994 11.2001V14.4C6.39994 14.88 6.71991 15.2 7.19991 15.2H14.6399C15.2799 15.2 15.8399 15.44 16.3199 15.92L21.6799 21.2799C22.1599 21.68 22.3999 22.3199 22.3999 22.9599V40.8V45.6C22.3999 46.08 22.0799 46.4 21.5999 46.4H2.4C1.92 46.4 1.60003 46.08 1.60003 45.6ZM46.4 44C46.4 45.36 45.36 46.4 44 46.4H23.871C23.9544 46.1513 24 45.8827 24 45.6V43.071C24.2486 43.1544 24.5172 43.2 24.8 43.2H40.8C42.16 43.2 43.2 42.16 43.2 40.8V16.88C43.2 15.84 42.72 14.7999 42 14.0799L38.72 10.8C38 10 36.96 9.6 35.9199 9.6H23.1999C21.8399 9.6 20.7999 10.64 20.7999 12V18.08L17.6 14.88V8.80003C17.6 7.44 18.6399 6.40003 20 6.40003H20.7999C21.2799 6.40003 21.5999 6.08006 21.5999 5.60006V2.4C21.5999 1.92 21.9199 1.60003 22.3999 1.60003H25.5998C26.0798 1.60003 26.3998 1.92 26.3998 2.4V5.59997C26.3998 6.07997 26.7198 6.39994 27.1998 6.39994H37.8397C38.4798 6.39994 39.1197 6.63994 39.5198 7.11994L45.6798 13.28C46.1598 13.68 46.3998 14.3199 46.3998 14.96V44H46.4Z" fill="#453888"/>
<path d="M46.8 12.16L40.64 6C39.92 5.20003 38.88 4.8 37.8399 4.8H27.9999V2.4C27.9999 1.03997 26.96 0 25.5999 0H22.4C21.0399 0 20 1.03997 20 2.4V4.8C17.76 4.8 15.9999 6.55997 15.9999 8.80003V13.8382C15.5653 13.6797 15.1027 13.6 14.6399 13.6H7.99997V11.2C7.99997 9.84 6.96 8.80003 5.59997 8.80003H4.00003C2.64 8.80003 1.60003 9.84 1.60003 11.2V13.7601C0.640031 14.08 0 14.96 0 16V45.6C0 46.96 1.03997 48 2.4 48H21.6H44C46.24 48 48 46.24 48 44V14.96C48 13.92 47.52 12.88 46.8 12.16ZM22.4 19.36V12C22.4 11.52 22.7199 11.2 23.1999 11.2H35.9199C36.56 11.2 37.1199 11.44 37.5999 11.92L40.88 15.2001C41.36 15.6001 41.6 16.24 41.6 16.8801V40.8C41.6 41.28 41.28 41.6 40.8 41.6H24.8C24.32 41.6 24 41.28 24 40.8V22.96V22.8801V22.24C24 21.6 23.76 21.04 23.28 20.56L22.8 20.08L22.64 19.92C22.48 19.76 22.4 19.6 22.4 19.36ZM1.60003 45.6V16C1.60003 15.52 1.92 15.2001 2.4 15.2001C2.88 15.2001 3.19997 14.8801 3.19997 14.4001V11.2001C3.19997 10.7201 3.51994 10.4002 3.99994 10.4002H5.59997C6.07997 10.4002 6.39994 10.7201 6.39994 11.2001V14.4C6.39994 14.88 6.71991 15.2 7.19991 15.2H14.6399C15.2799 15.2 15.8399 15.44 16.3199 15.92L21.6799 21.2799C22.1599 21.68 22.3999 22.3199 22.3999 22.9599V40.8V45.6C22.3999 46.08 22.0799 46.4 21.5999 46.4H2.4C1.92 46.4 1.60003 46.08 1.60003 45.6ZM46.4 44C46.4 45.36 45.36 46.4 44 46.4H23.871C23.9544 46.1513 24 45.8827 24 45.6V43.071C24.2486 43.1544 24.5172 43.2 24.8 43.2H40.8C42.16 43.2 43.2 42.16 43.2 40.8V16.88C43.2 15.84 42.72 14.7999 42 14.0799L38.72 10.8C38 10 36.96 9.6 35.9199 9.6H23.1999C21.8399 9.6 20.7999 10.64 20.7999 12V18.08L17.6 14.88V8.80003C17.6 7.44 18.6399 6.40003 20 6.40003H20.7999C21.2799 6.40003 21.5999 6.08006 21.5999 5.60006V2.4C21.5999 1.92 21.9199 1.60003 22.3999 1.60003H25.5998C26.0798 1.60003 26.3998 1.92 26.3998 2.4V5.59997C26.3998 6.07997 26.7198 6.39994 27.1998 6.39994H37.8397C38.4798 6.39994 39.1197 6.63994 39.5198 7.11994L45.6798 13.28C46.1598 13.68 46.3998 14.3199 46.3998 14.96V44H46.4Z" fill="#5946D7"/>
<path d="M35.9992 30.4004H27.9992C27.5192 30.4004 27.1992 30.7204 27.1992 31.2004C27.1992 31.6804 27.5192 32.0003 27.9992 32.0003H35.9992C36.4792 32.0003 36.7991 31.6804 36.7991 31.2004C36.7991 30.7204 36.4792 30.4004 35.9992 30.4004Z" fill="#2E1066"/>
<path d="M35.9992 30.4004H27.9992C27.5192 30.4004 27.1992 30.7204 27.1992 31.2004C27.1992 31.6804 27.5192 32.0003 27.9992 32.0003H35.9992C36.4792 32.0003 36.7991 31.6804 36.7991 31.2004C36.7991 30.7204 36.4792 30.4004 35.9992 30.4004Z" fill="#410F9E"/>
<path d="M35.9992 30.4004H27.9992C27.5192 30.4004 27.1992 30.7204 27.1992 31.2004C27.1992 31.6804 27.5192 32.0003 27.9992 32.0003H35.9992C36.4792 32.0003 36.7991 31.6804 36.7991 31.2004C36.7991 30.7204 36.4792 30.4004 35.9992 30.4004Z" fill="#453888"/>
<path d="M35.9992 30.4004H27.9992C27.5192 30.4004 27.1992 30.7204 27.1992 31.2004C27.1992 31.6804 27.5192 32.0003 27.9992 32.0003H35.9992C36.4792 32.0003 36.7991 31.6804 36.7991 31.2004C36.7991 30.7204 36.4792 30.4004 35.9992 30.4004Z" fill="#5946D7"/>
<path d="M26.3996 36.0003H37.5996C38.0796 36.0003 38.3996 35.6804 38.3996 35.2004C38.3996 34.7204 38.0796 34.4004 37.5996 34.4004H26.3996C25.9196 34.4004 25.5996 34.7204 25.5996 35.2004C25.5996 35.6804 25.9196 36.0003 26.3996 36.0003Z" fill="#2E1066"/>
<path d="M26.3996 36.0003H37.5996C38.0796 36.0003 38.3996 35.6804 38.3996 35.2004C38.3996 34.7204 38.0796 34.4004 37.5996 34.4004H26.3996C25.9196 34.4004 25.5996 34.7204 25.5996 35.2004C25.5996 35.6804 25.9196 36.0003 26.3996 36.0003Z" fill="#410F9E"/>
<path d="M26.3996 36.0003H37.5996C38.0796 36.0003 38.3996 35.6804 38.3996 35.2004C38.3996 34.7204 38.0796 34.4004 37.5996 34.4004H26.3996C25.9196 34.4004 25.5996 34.7204 25.5996 35.2004C25.5996 35.6804 25.9196 36.0003 26.3996 36.0003Z" fill="#453888"/>
<path d="M26.3996 36.0003H37.5996C38.0796 36.0003 38.3996 35.6804 38.3996 35.2004C38.3996 34.7204 38.0796 34.4004 37.5996 34.4004H26.3996C25.9196 34.4004 25.5996 34.7204 25.5996 35.2004C25.5996 35.6804 25.9196 36.0003 26.3996 36.0003Z" fill="#5946D7"/>
</g>
<defs>
<clipPath id="clip0_1_11121">
<rect width="48" height="48" fill="white"/>
</clipPath>
</defs>
</svg>
