<svg width="48" height="48" viewBox="0 0 48 48" fill="none" xmlns="http://www.w3.org/2000/svg">
<g clip-path="url(#clip0_1_11113)">
<path d="M47.4489 10.9783L47.3688 10.8982L37.1917 0.721201C36.3102 -0.2404 34.7877 -0.2404 33.8261 0.721201L32.7042 1.8431C32.5439 2.0034 32.4638 2.1636 32.4638 2.40401C32.4638 2.64441 32.5439 2.8047 32.7042 2.96491L33.2651 3.52581L32.2216 4.56939L31.6624 4.00661C31.3419 3.68611 30.8611 3.68611 30.5405 4.00661C30.2199 4.32712 30.22 4.80792 30.5405 5.12851L31.0997 5.69129L29.8996 6.89151L28.7777 5.76961C28.6174 5.60931 28.4572 5.52921 28.2168 5.52921C28.0565 5.52921 27.8161 5.60931 27.736 5.76961L14.1133 19.3923C13.7928 19.7128 13.7928 20.1936 14.1133 20.5142L14.9146 21.3155C16.0365 22.4374 17.7994 22.4374 18.9213 21.3155L20.6041 19.6327C21.2451 19.683 21.8702 19.8103 22.4704 20.0051L9.78608 32.6144C8.58408 32.2137 7.46218 32.2137 6.42048 32.5343L4.73767 30.9316C4.41717 30.6111 3.93637 30.6111 3.61577 30.9316L0.250166 34.2972C0.0898678 34.4575 0.00976562 34.6177 0.00976562 34.8581C0.00976562 35.0985 0.0898678 35.2588 0.170064 35.3389L1.85287 37.0217C0.971368 39.586 1.69257 42.4708 3.61577 44.394C5.61908 46.3973 8.50389 47.0384 11.0682 46.1569L12.751 47.7596C12.9113 47.9199 13.1517 48 13.3119 48C13.4721 48 13.7126 47.9199 13.8728 47.7596L17.2384 44.4741C17.3987 44.3138 17.4788 44.1536 17.4788 43.9132C17.4788 43.6728 17.3987 43.5125 17.2384 43.3523L15.5556 41.6695C15.9563 40.5476 15.8761 39.5059 15.4755 38.3039L28.1076 25.5966C28.3243 26.2271 28.472 26.8866 28.5372 27.566L26.8544 29.2488C25.7325 30.3707 25.7325 32.1336 26.8544 33.2555L27.6557 34.0568C27.816 34.2171 27.9762 34.2972 28.2166 34.2972C28.457 34.2972 28.6974 34.2171 28.6974 34.0568L42.3204 20.434C42.6409 20.1135 42.6409 19.6327 42.3204 19.3121L41.1984 18.1902L42.3623 17.0264L42.9614 17.6293C43.1217 17.7896 43.2819 17.8697 43.5223 17.8697C43.7627 17.8697 43.923 17.7896 44.0832 17.6293C44.4037 17.3088 44.4037 16.828 44.0832 16.5074L43.4841 15.9045L44.564 14.8246L45.1249 15.3855C45.4454 15.706 45.9262 15.706 46.2468 15.3855L47.3687 14.2636L47.4488 14.1835C48.1701 13.3021 48.1701 11.8597 47.4489 10.9783ZM14.0332 37.5826C13.7928 37.823 13.7127 38.1435 13.8729 38.4641C14.4338 39.9866 14.2736 40.8681 13.953 41.5893C13.7927 41.9098 13.8729 42.2304 14.1133 42.4708L15.5557 43.9132L13.312 46.0768L11.7895 44.7145C11.6292 44.5542 11.3888 44.4741 11.2286 44.4741C11.1485 44.4741 11.0683 44.4741 10.9882 44.5542C8.82458 45.4357 6.42057 44.9549 4.81787 43.3522C3.21517 41.7495 2.73437 39.2654 3.61587 37.1819C3.77617 36.8614 3.69597 36.5408 3.45557 36.3004L2.01317 34.8581L4.25687 32.6144L5.69928 34.0568C5.93968 34.2972 6.26018 34.3773 6.58078 34.2171C7.30198 33.8966 8.18348 33.6562 9.70598 34.2972C10.0265 34.4575 10.3471 34.3773 10.5875 34.1369L24.0812 20.723C25.4845 21.5291 26.6636 22.7252 27.4619 24.154L14.0332 37.5826ZM28.2168 32.374L27.9764 32.1336C27.4956 31.6528 27.4956 30.8515 27.9764 30.3707L29.8996 28.4475C30.0599 28.2872 30.14 28.0468 30.14 27.8064C30.0587 26.485 29.714 25.2155 29.1616 24.0522C29.1479 23.995 29.1272 23.9374 29.0983 23.8798C28.6209 22.925 27.9907 22.0388 27.2489 21.2572C27.1935 21.1983 27.1375 21.14 27.0808 21.0824C27.0652 21.0665 27.0498 21.0503 27.034 21.0345C26.1975 20.1937 25.2277 19.4901 24.1683 18.9672C24.1649 18.9654 24.1616 18.9638 24.1582 18.9621C22.9598 18.3722 21.6473 18.0138 20.2837 17.9498C20.1234 17.9498 19.883 18.0299 19.7228 18.1902L17.7996 20.1134C17.3188 20.5942 16.5175 20.5942 16.0367 20.1134L15.7963 19.873L28.2168 7.45242L29.3386 8.57422C29.3386 8.57422 29.3386 8.57422 29.3387 8.57432L39.5957 18.7512L40.7176 19.8731L28.2168 32.374ZM40.1166 17.1085L31.0215 8.01341L32.2181 6.81686L41.284 15.9413L40.1166 17.1085ZM33.34 5.69486L34.4672 4.56761L43.5624 13.6627L42.4058 14.8193L33.34 5.69486ZM46.327 13.1419L45.8462 13.6227L45.2853 13.0618C45.2079 12.9844 45.121 12.9261 45.0295 12.8861L35.0281 2.88481C35.0281 2.88481 35.0281 2.88481 35.028 2.88471L34.4671 2.32381L35.028 1.76291C35.3485 1.4424 35.8293 1.4424 36.1499 1.76291L46.3269 11.9398C46.5674 12.2604 46.5674 12.8213 46.327 13.1419Z" fill="#2E1066"/>
<path d="M47.4489 10.9783L47.3688 10.8982L37.1917 0.721201C36.3102 -0.2404 34.7877 -0.2404 33.8261 0.721201L32.7042 1.8431C32.5439 2.0034 32.4638 2.1636 32.4638 2.40401C32.4638 2.64441 32.5439 2.8047 32.7042 2.96491L33.2651 3.52581L32.2216 4.56939L31.6624 4.00661C31.3419 3.68611 30.8611 3.68611 30.5405 4.00661C30.2199 4.32712 30.22 4.80792 30.5405 5.12851L31.0997 5.69129L29.8996 6.89151L28.7777 5.76961C28.6174 5.60931 28.4572 5.52921 28.2168 5.52921C28.0565 5.52921 27.8161 5.60931 27.736 5.76961L14.1133 19.3923C13.7928 19.7128 13.7928 20.1936 14.1133 20.5142L14.9146 21.3155C16.0365 22.4374 17.7994 22.4374 18.9213 21.3155L20.6041 19.6327C21.2451 19.683 21.8702 19.8103 22.4704 20.0051L9.78608 32.6144C8.58408 32.2137 7.46218 32.2137 6.42048 32.5343L4.73767 30.9316C4.41717 30.6111 3.93637 30.6111 3.61577 30.9316L0.250166 34.2972C0.0898678 34.4575 0.00976562 34.6177 0.00976562 34.8581C0.00976562 35.0985 0.0898678 35.2588 0.170064 35.3389L1.85287 37.0217C0.971368 39.586 1.69257 42.4708 3.61577 44.394C5.61908 46.3973 8.50389 47.0384 11.0682 46.1569L12.751 47.7596C12.9113 47.9199 13.1517 48 13.3119 48C13.4721 48 13.7126 47.9199 13.8728 47.7596L17.2384 44.4741C17.3987 44.3138 17.4788 44.1536 17.4788 43.9132C17.4788 43.6728 17.3987 43.5125 17.2384 43.3523L15.5556 41.6695C15.9563 40.5476 15.8761 39.5059 15.4755 38.3039L28.1076 25.5966C28.3243 26.2271 28.472 26.8866 28.5372 27.566L26.8544 29.2488C25.7325 30.3707 25.7325 32.1336 26.8544 33.2555L27.6557 34.0568C27.816 34.2171 27.9762 34.2972 28.2166 34.2972C28.457 34.2972 28.6974 34.2171 28.6974 34.0568L42.3204 20.434C42.6409 20.1135 42.6409 19.6327 42.3204 19.3121L41.1984 18.1902L42.3623 17.0264L42.9614 17.6293C43.1217 17.7896 43.2819 17.8697 43.5223 17.8697C43.7627 17.8697 43.923 17.7896 44.0832 17.6293C44.4037 17.3088 44.4037 16.828 44.0832 16.5074L43.4841 15.9045L44.564 14.8246L45.1249 15.3855C45.4454 15.706 45.9262 15.706 46.2468 15.3855L47.3687 14.2636L47.4488 14.1835C48.1701 13.3021 48.1701 11.8597 47.4489 10.9783ZM14.0332 37.5826C13.7928 37.823 13.7127 38.1435 13.8729 38.4641C14.4338 39.9866 14.2736 40.8681 13.953 41.5893C13.7927 41.9098 13.8729 42.2304 14.1133 42.4708L15.5557 43.9132L13.312 46.0768L11.7895 44.7145C11.6292 44.5542 11.3888 44.4741 11.2286 44.4741C11.1485 44.4741 11.0683 44.4741 10.9882 44.5542C8.82458 45.4357 6.42057 44.9549 4.81787 43.3522C3.21517 41.7495 2.73437 39.2654 3.61587 37.1819C3.77617 36.8614 3.69597 36.5408 3.45557 36.3004L2.01317 34.8581L4.25687 32.6144L5.69928 34.0568C5.93968 34.2972 6.26018 34.3773 6.58078 34.2171C7.30198 33.8966 8.18348 33.6562 9.70598 34.2972C10.0265 34.4575 10.3471 34.3773 10.5875 34.1369L24.0812 20.723C25.4845 21.5291 26.6636 22.7252 27.4619 24.154L14.0332 37.5826ZM28.2168 32.374L27.9764 32.1336C27.4956 31.6528 27.4956 30.8515 27.9764 30.3707L29.8996 28.4475C30.0599 28.2872 30.14 28.0468 30.14 27.8064C30.0587 26.485 29.714 25.2155 29.1616 24.0522C29.1479 23.995 29.1272 23.9374 29.0983 23.8798C28.6209 22.925 27.9907 22.0388 27.2489 21.2572C27.1935 21.1983 27.1375 21.14 27.0808 21.0824C27.0652 21.0665 27.0498 21.0503 27.034 21.0345C26.1975 20.1937 25.2277 19.4901 24.1683 18.9672C24.1649 18.9654 24.1616 18.9638 24.1582 18.9621C22.9598 18.3722 21.6473 18.0138 20.2837 17.9498C20.1234 17.9498 19.883 18.0299 19.7228 18.1902L17.7996 20.1134C17.3188 20.5942 16.5175 20.5942 16.0367 20.1134L15.7963 19.873L28.2168 7.45242L29.3386 8.57422C29.3386 8.57422 29.3386 8.57422 29.3387 8.57432L39.5957 18.7512L40.7176 19.8731L28.2168 32.374ZM40.1166 17.1085L31.0215 8.01341L32.2181 6.81686L41.284 15.9413L40.1166 17.1085ZM33.34 5.69486L34.4672 4.56761L43.5624 13.6627L42.4058 14.8193L33.34 5.69486ZM46.327 13.1419L45.8462 13.6227L45.2853 13.0618C45.2079 12.9844 45.121 12.9261 45.0295 12.8861L35.0281 2.88481C35.0281 2.88481 35.0281 2.88481 35.028 2.88471L34.4671 2.32381L35.028 1.76291C35.3485 1.4424 35.8293 1.4424 36.1499 1.76291L46.3269 11.9398C46.5674 12.2604 46.5674 12.8213 46.327 13.1419Z" fill="#410F9E"/>
<path d="M47.4489 10.9783L47.3688 10.8982L37.1917 0.721201C36.3102 -0.2404 34.7877 -0.2404 33.8261 0.721201L32.7042 1.8431C32.5439 2.0034 32.4638 2.1636 32.4638 2.40401C32.4638 2.64441 32.5439 2.8047 32.7042 2.96491L33.2651 3.52581L32.2216 4.56939L31.6624 4.00661C31.3419 3.68611 30.8611 3.68611 30.5405 4.00661C30.2199 4.32712 30.22 4.80792 30.5405 5.12851L31.0997 5.69129L29.8996 6.89151L28.7777 5.76961C28.6174 5.60931 28.4572 5.52921 28.2168 5.52921C28.0565 5.52921 27.8161 5.60931 27.736 5.76961L14.1133 19.3923C13.7928 19.7128 13.7928 20.1936 14.1133 20.5142L14.9146 21.3155C16.0365 22.4374 17.7994 22.4374 18.9213 21.3155L20.6041 19.6327C21.2451 19.683 21.8702 19.8103 22.4704 20.0051L9.78608 32.6144C8.58408 32.2137 7.46218 32.2137 6.42048 32.5343L4.73767 30.9316C4.41717 30.6111 3.93637 30.6111 3.61577 30.9316L0.250166 34.2972C0.0898678 34.4575 0.00976562 34.6177 0.00976562 34.8581C0.00976562 35.0985 0.0898678 35.2588 0.170064 35.3389L1.85287 37.0217C0.971368 39.586 1.69257 42.4708 3.61577 44.394C5.61908 46.3973 8.50389 47.0384 11.0682 46.1569L12.751 47.7596C12.9113 47.9199 13.1517 48 13.3119 48C13.4721 48 13.7126 47.9199 13.8728 47.7596L17.2384 44.4741C17.3987 44.3138 17.4788 44.1536 17.4788 43.9132C17.4788 43.6728 17.3987 43.5125 17.2384 43.3523L15.5556 41.6695C15.9563 40.5476 15.8761 39.5059 15.4755 38.3039L28.1076 25.5966C28.3243 26.2271 28.472 26.8866 28.5372 27.566L26.8544 29.2488C25.7325 30.3707 25.7325 32.1336 26.8544 33.2555L27.6557 34.0568C27.816 34.2171 27.9762 34.2972 28.2166 34.2972C28.457 34.2972 28.6974 34.2171 28.6974 34.0568L42.3204 20.434C42.6409 20.1135 42.6409 19.6327 42.3204 19.3121L41.1984 18.1902L42.3623 17.0264L42.9614 17.6293C43.1217 17.7896 43.2819 17.8697 43.5223 17.8697C43.7627 17.8697 43.923 17.7896 44.0832 17.6293C44.4037 17.3088 44.4037 16.828 44.0832 16.5074L43.4841 15.9045L44.564 14.8246L45.1249 15.3855C45.4454 15.706 45.9262 15.706 46.2468 15.3855L47.3687 14.2636L47.4488 14.1835C48.1701 13.3021 48.1701 11.8597 47.4489 10.9783ZM14.0332 37.5826C13.7928 37.823 13.7127 38.1435 13.8729 38.4641C14.4338 39.9866 14.2736 40.8681 13.953 41.5893C13.7927 41.9098 13.8729 42.2304 14.1133 42.4708L15.5557 43.9132L13.312 46.0768L11.7895 44.7145C11.6292 44.5542 11.3888 44.4741 11.2286 44.4741C11.1485 44.4741 11.0683 44.4741 10.9882 44.5542C8.82458 45.4357 6.42057 44.9549 4.81787 43.3522C3.21517 41.7495 2.73437 39.2654 3.61587 37.1819C3.77617 36.8614 3.69597 36.5408 3.45557 36.3004L2.01317 34.8581L4.25687 32.6144L5.69928 34.0568C5.93968 34.2972 6.26018 34.3773 6.58078 34.2171C7.30198 33.8966 8.18348 33.6562 9.70598 34.2972C10.0265 34.4575 10.3471 34.3773 10.5875 34.1369L24.0812 20.723C25.4845 21.5291 26.6636 22.7252 27.4619 24.154L14.0332 37.5826ZM28.2168 32.374L27.9764 32.1336C27.4956 31.6528 27.4956 30.8515 27.9764 30.3707L29.8996 28.4475C30.0599 28.2872 30.14 28.0468 30.14 27.8064C30.0587 26.485 29.714 25.2155 29.1616 24.0522C29.1479 23.995 29.1272 23.9374 29.0983 23.8798C28.6209 22.925 27.9907 22.0388 27.2489 21.2572C27.1935 21.1983 27.1375 21.14 27.0808 21.0824C27.0652 21.0665 27.0498 21.0503 27.034 21.0345C26.1975 20.1937 25.2277 19.4901 24.1683 18.9672C24.1649 18.9654 24.1616 18.9638 24.1582 18.9621C22.9598 18.3722 21.6473 18.0138 20.2837 17.9498C20.1234 17.9498 19.883 18.0299 19.7228 18.1902L17.7996 20.1134C17.3188 20.5942 16.5175 20.5942 16.0367 20.1134L15.7963 19.873L28.2168 7.45242L29.3386 8.57422C29.3386 8.57422 29.3386 8.57422 29.3387 8.57432L39.5957 18.7512L40.7176 19.8731L28.2168 32.374ZM40.1166 17.1085L31.0215 8.01341L32.2181 6.81686L41.284 15.9413L40.1166 17.1085ZM33.34 5.69486L34.4672 4.56761L43.5624 13.6627L42.4058 14.8193L33.34 5.69486ZM46.327 13.1419L45.8462 13.6227L45.2853 13.0618C45.2079 12.9844 45.121 12.9261 45.0295 12.8861L35.0281 2.88481C35.0281 2.88481 35.0281 2.88481 35.028 2.88471L34.4671 2.32381L35.028 1.76291C35.3485 1.4424 35.8293 1.4424 36.1499 1.76291L46.3269 11.9398C46.5674 12.2604 46.5674 12.8213 46.327 13.1419Z" fill="#453888"/>
<path d="M47.4489 10.9783L47.3688 10.8982L37.1917 0.721201C36.3102 -0.2404 34.7877 -0.2404 33.8261 0.721201L32.7042 1.8431C32.5439 2.0034 32.4638 2.1636 32.4638 2.40401C32.4638 2.64441 32.5439 2.8047 32.7042 2.96491L33.2651 3.52581L32.2216 4.56939L31.6624 4.00661C31.3419 3.68611 30.8611 3.68611 30.5405 4.00661C30.2199 4.32712 30.22 4.80792 30.5405 5.12851L31.0997 5.69129L29.8996 6.89151L28.7777 5.76961C28.6174 5.60931 28.4572 5.52921 28.2168 5.52921C28.0565 5.52921 27.8161 5.60931 27.736 5.76961L14.1133 19.3923C13.7928 19.7128 13.7928 20.1936 14.1133 20.5142L14.9146 21.3155C16.0365 22.4374 17.7994 22.4374 18.9213 21.3155L20.6041 19.6327C21.2451 19.683 21.8702 19.8103 22.4704 20.0051L9.78608 32.6144C8.58408 32.2137 7.46218 32.2137 6.42048 32.5343L4.73767 30.9316C4.41717 30.6111 3.93637 30.6111 3.61577 30.9316L0.250166 34.2972C0.0898678 34.4575 0.00976562 34.6177 0.00976562 34.8581C0.00976562 35.0985 0.0898678 35.2588 0.170064 35.3389L1.85287 37.0217C0.971368 39.586 1.69257 42.4708 3.61577 44.394C5.61908 46.3973 8.50389 47.0384 11.0682 46.1569L12.751 47.7596C12.9113 47.9199 13.1517 48 13.3119 48C13.4721 48 13.7126 47.9199 13.8728 47.7596L17.2384 44.4741C17.3987 44.3138 17.4788 44.1536 17.4788 43.9132C17.4788 43.6728 17.3987 43.5125 17.2384 43.3523L15.5556 41.6695C15.9563 40.5476 15.8761 39.5059 15.4755 38.3039L28.1076 25.5966C28.3243 26.2271 28.472 26.8866 28.5372 27.566L26.8544 29.2488C25.7325 30.3707 25.7325 32.1336 26.8544 33.2555L27.6557 34.0568C27.816 34.2171 27.9762 34.2972 28.2166 34.2972C28.457 34.2972 28.6974 34.2171 28.6974 34.0568L42.3204 20.434C42.6409 20.1135 42.6409 19.6327 42.3204 19.3121L41.1984 18.1902L42.3623 17.0264L42.9614 17.6293C43.1217 17.7896 43.2819 17.8697 43.5223 17.8697C43.7627 17.8697 43.923 17.7896 44.0832 17.6293C44.4037 17.3088 44.4037 16.828 44.0832 16.5074L43.4841 15.9045L44.564 14.8246L45.1249 15.3855C45.4454 15.706 45.9262 15.706 46.2468 15.3855L47.3687 14.2636L47.4488 14.1835C48.1701 13.3021 48.1701 11.8597 47.4489 10.9783ZM14.0332 37.5826C13.7928 37.823 13.7127 38.1435 13.8729 38.4641C14.4338 39.9866 14.2736 40.8681 13.953 41.5893C13.7927 41.9098 13.8729 42.2304 14.1133 42.4708L15.5557 43.9132L13.312 46.0768L11.7895 44.7145C11.6292 44.5542 11.3888 44.4741 11.2286 44.4741C11.1485 44.4741 11.0683 44.4741 10.9882 44.5542C8.82458 45.4357 6.42057 44.9549 4.81787 43.3522C3.21517 41.7495 2.73437 39.2654 3.61587 37.1819C3.77617 36.8614 3.69597 36.5408 3.45557 36.3004L2.01317 34.8581L4.25687 32.6144L5.69928 34.0568C5.93968 34.2972 6.26018 34.3773 6.58078 34.2171C7.30198 33.8966 8.18348 33.6562 9.70598 34.2972C10.0265 34.4575 10.3471 34.3773 10.5875 34.1369L24.0812 20.723C25.4845 21.5291 26.6636 22.7252 27.4619 24.154L14.0332 37.5826ZM28.2168 32.374L27.9764 32.1336C27.4956 31.6528 27.4956 30.8515 27.9764 30.3707L29.8996 28.4475C30.0599 28.2872 30.14 28.0468 30.14 27.8064C30.0587 26.485 29.714 25.2155 29.1616 24.0522C29.1479 23.995 29.1272 23.9374 29.0983 23.8798C28.6209 22.925 27.9907 22.0388 27.2489 21.2572C27.1935 21.1983 27.1375 21.14 27.0808 21.0824C27.0652 21.0665 27.0498 21.0503 27.034 21.0345C26.1975 20.1937 25.2277 19.4901 24.1683 18.9672C24.1649 18.9654 24.1616 18.9638 24.1582 18.9621C22.9598 18.3722 21.6473 18.0138 20.2837 17.9498C20.1234 17.9498 19.883 18.0299 19.7228 18.1902L17.7996 20.1134C17.3188 20.5942 16.5175 20.5942 16.0367 20.1134L15.7963 19.873L28.2168 7.45242L29.3386 8.57422C29.3386 8.57422 29.3386 8.57422 29.3387 8.57432L39.5957 18.7512L40.7176 19.8731L28.2168 32.374ZM40.1166 17.1085L31.0215 8.01341L32.2181 6.81686L41.284 15.9413L40.1166 17.1085ZM33.34 5.69486L34.4672 4.56761L43.5624 13.6627L42.4058 14.8193L33.34 5.69486ZM46.327 13.1419L45.8462 13.6227L45.2853 13.0618C45.2079 12.9844 45.121 12.9261 45.0295 12.8861L35.0281 2.88481C35.0281 2.88481 35.0281 2.88481 35.028 2.88471L34.4671 2.32381L35.028 1.76291C35.3485 1.4424 35.8293 1.4424 36.1499 1.76291L46.3269 11.9398C46.5674 12.2604 46.5674 12.8213 46.327 13.1419Z" fill="#5946D7"/>
<path d="M23.1676 23.879L15.5548 31.4918C15.2343 31.8123 15.2343 32.2931 15.5548 32.6137C15.7151 32.774 15.8753 32.8541 16.1157 32.8541C16.276 32.8541 16.5164 32.774 16.6766 32.6137L24.2894 25.0009C24.6099 24.6804 24.6099 24.1996 24.2894 23.879C23.9689 23.5585 23.4881 23.5585 23.1676 23.879Z" fill="#2E1066"/>
<path d="M23.1676 23.879L15.5548 31.4918C15.2343 31.8123 15.2343 32.2931 15.5548 32.6137C15.7151 32.774 15.8753 32.8541 16.1157 32.8541C16.276 32.8541 16.5164 32.774 16.6766 32.6137L24.2894 25.0009C24.6099 24.6804 24.6099 24.1996 24.2894 23.879C23.9689 23.5585 23.4881 23.5585 23.1676 23.879Z" fill="#410F9E"/>
<path d="M23.1676 23.879L15.5548 31.4918C15.2343 31.8123 15.2343 32.2931 15.5548 32.6137C15.7151 32.774 15.8753 32.8541 16.1157 32.8541C16.276 32.8541 16.5164 32.774 16.6766 32.6137L24.2894 25.0009C24.6099 24.6804 24.6099 24.1996 24.2894 23.879C23.9689 23.5585 23.4881 23.5585 23.1676 23.879Z" fill="#453888"/>
<path d="M23.1676 23.879L15.5548 31.4918C15.2343 31.8123 15.2343 32.2931 15.5548 32.6137C15.7151 32.774 15.8753 32.8541 16.1157 32.8541C16.276 32.8541 16.5164 32.774 16.6766 32.6137L24.2894 25.0009C24.6099 24.6804 24.6099 24.1996 24.2894 23.879C23.9689 23.5585 23.4881 23.5585 23.1676 23.879Z" fill="#5946D7"/>
<path d="M5.94028 36.6204C5.13898 37.3416 4.73828 38.3833 4.73828 39.4251C4.73828 40.4669 5.21908 41.5086 5.94028 42.2298C6.66148 43.0311 7.70319 43.4318 8.74499 43.4318C9.78669 43.4318 10.8285 42.951 11.6298 42.2298C12.4311 41.5086 12.8318 40.4669 12.8318 39.4251C12.8318 38.3833 12.351 37.3416 11.6298 36.6204C10.0271 35.0979 7.46288 35.0979 5.94028 36.6204ZM10.4278 41.1079C9.54629 41.9894 7.94368 41.9894 7.06218 41.1079C6.58138 40.7072 6.34098 40.0662 6.34098 39.4251C6.34098 38.784 6.58138 38.2231 7.06218 37.7423C7.54298 37.2615 8.10389 37.0211 8.74499 37.0211C9.38609 37.0211 9.94699 37.1814 10.4278 37.7423C10.9086 38.143 11.149 38.784 11.149 39.4251C11.149 40.0662 10.9086 40.6271 10.4278 41.1079Z" fill="#2E1066"/>
<path d="M5.94028 36.6204C5.13898 37.3416 4.73828 38.3833 4.73828 39.4251C4.73828 40.4669 5.21908 41.5086 5.94028 42.2298C6.66148 43.0311 7.70319 43.4318 8.74499 43.4318C9.78669 43.4318 10.8285 42.951 11.6298 42.2298C12.4311 41.5086 12.8318 40.4669 12.8318 39.4251C12.8318 38.3833 12.351 37.3416 11.6298 36.6204C10.0271 35.0979 7.46288 35.0979 5.94028 36.6204ZM10.4278 41.1079C9.54629 41.9894 7.94368 41.9894 7.06218 41.1079C6.58138 40.7072 6.34098 40.0662 6.34098 39.4251C6.34098 38.784 6.58138 38.2231 7.06218 37.7423C7.54298 37.2615 8.10389 37.0211 8.74499 37.0211C9.38609 37.0211 9.94699 37.1814 10.4278 37.7423C10.9086 38.143 11.149 38.784 11.149 39.4251C11.149 40.0662 10.9086 40.6271 10.4278 41.1079Z" fill="#410F9E"/>
<path d="M5.94028 36.6204C5.13898 37.3416 4.73828 38.3833 4.73828 39.4251C4.73828 40.4669 5.21908 41.5086 5.94028 42.2298C6.66148 43.0311 7.70319 43.4318 8.74499 43.4318C9.78669 43.4318 10.8285 42.951 11.6298 42.2298C12.4311 41.5086 12.8318 40.4669 12.8318 39.4251C12.8318 38.3833 12.351 37.3416 11.6298 36.6204C10.0271 35.0979 7.46288 35.0979 5.94028 36.6204ZM10.4278 41.1079C9.54629 41.9894 7.94368 41.9894 7.06218 41.1079C6.58138 40.7072 6.34098 40.0662 6.34098 39.4251C6.34098 38.784 6.58138 38.2231 7.06218 37.7423C7.54298 37.2615 8.10389 37.0211 8.74499 37.0211C9.38609 37.0211 9.94699 37.1814 10.4278 37.7423C10.9086 38.143 11.149 38.784 11.149 39.4251C11.149 40.0662 10.9086 40.6271 10.4278 41.1079Z" fill="#453888"/>
<path d="M5.94028 36.6204C5.13898 37.3416 4.73828 38.3833 4.73828 39.4251C4.73828 40.4669 5.21908 41.5086 5.94028 42.2298C6.66148 43.0311 7.70319 43.4318 8.74499 43.4318C9.78669 43.4318 10.8285 42.951 11.6298 42.2298C12.4311 41.5086 12.8318 40.4669 12.8318 39.4251C12.8318 38.3833 12.351 37.3416 11.6298 36.6204C10.0271 35.0979 7.46288 35.0979 5.94028 36.6204ZM10.4278 41.1079C9.54629 41.9894 7.94368 41.9894 7.06218 41.1079C6.58138 40.7072 6.34098 40.0662 6.34098 39.4251C6.34098 38.784 6.58138 38.2231 7.06218 37.7423C7.54298 37.2615 8.10389 37.0211 8.74499 37.0211C9.38609 37.0211 9.94699 37.1814 10.4278 37.7423C10.9086 38.143 11.149 38.784 11.149 39.4251C11.149 40.0662 10.9086 40.6271 10.4278 41.1079Z" fill="#5946D7"/>
<path d="M30.4612 14.3438C28.6983 14.3438 27.2559 15.7862 27.2559 17.5491C27.2559 19.312 28.6983 20.7544 30.4612 20.7544C32.2241 20.7544 33.6665 19.312 33.6665 17.5491C33.6666 15.7862 32.2242 14.3438 30.4612 14.3438ZM30.4612 19.1518C29.5797 19.1518 28.8585 18.4306 28.8585 17.5491C28.8585 16.6676 29.5797 15.9464 30.4612 15.9464C31.3427 15.9464 32.0639 16.6676 32.0639 17.5491C32.0639 18.4306 31.3427 19.1518 30.4612 19.1518Z" fill="#2E1066"/>
<path d="M30.4612 14.3438C28.6983 14.3438 27.2559 15.7862 27.2559 17.5491C27.2559 19.312 28.6983 20.7544 30.4612 20.7544C32.2241 20.7544 33.6665 19.312 33.6665 17.5491C33.6666 15.7862 32.2242 14.3438 30.4612 14.3438ZM30.4612 19.1518C29.5797 19.1518 28.8585 18.4306 28.8585 17.5491C28.8585 16.6676 29.5797 15.9464 30.4612 15.9464C31.3427 15.9464 32.0639 16.6676 32.0639 17.5491C32.0639 18.4306 31.3427 19.1518 30.4612 19.1518Z" fill="#410F9E"/>
<path d="M30.4612 14.3438C28.6983 14.3438 27.2559 15.7862 27.2559 17.5491C27.2559 19.312 28.6983 20.7544 30.4612 20.7544C32.2241 20.7544 33.6665 19.312 33.6665 17.5491C33.6666 15.7862 32.2242 14.3438 30.4612 14.3438ZM30.4612 19.1518C29.5797 19.1518 28.8585 18.4306 28.8585 17.5491C28.8585 16.6676 29.5797 15.9464 30.4612 15.9464C31.3427 15.9464 32.0639 16.6676 32.0639 17.5491C32.0639 18.4306 31.3427 19.1518 30.4612 19.1518Z" fill="#453888"/>
<path d="M30.4612 14.3438C28.6983 14.3438 27.2559 15.7862 27.2559 17.5491C27.2559 19.312 28.6983 20.7544 30.4612 20.7544C32.2241 20.7544 33.6665 19.312 33.6665 17.5491C33.6666 15.7862 32.2242 14.3438 30.4612 14.3438ZM30.4612 19.1518C29.5797 19.1518 28.8585 18.4306 28.8585 17.5491C28.8585 16.6676 29.5797 15.9464 30.4612 15.9464C31.3427 15.9464 32.0639 16.6676 32.0639 17.5491C32.0639 18.4306 31.3427 19.1518 30.4612 19.1518Z" fill="#5946D7"/>
</g>
<defs>
<clipPath id="clip0_1_11113">
<rect width="48" height="48" fill="white"/>
</clipPath>
</defs>
</svg>
